<svg width="287" height="274" viewBox="0 0 287 274" fill="none" xmlns="http://www.w3.org/2000/svg">
<g clip-path="url(#clip0_159_3662)">
<path d="M1 0V207.704C1 207.704 22.8711 245.071 79.1019 240.735C135.333 236.399 146.995 213.044 214.888 256.086C214.888 256.086 238.839 274.101 282.572 273.439V0H1Z" fill="#FAF8F5"/>
<path d="M274.888 274C239.069 274 217.843 260.769 217.617 260.616C175.175 233.899 149.157 238.994 113.157 246.056C103.608 247.929 93.725 249.867 82.4555 251.493C27.3765 259.448 0.271772 236.309 0 236.069L0.67037 235.583C0.933083 235.815 27.7479 258.656 82.2834 250.781C93.5348 249.156 103.391 247.225 112.93 245.352C149.185 238.247 175.374 233.115 218.169 260.05C218.432 260.217 244.187 276.257 286.9 272.781L286.991 273.499C282.797 273.848 278.756 274 274.888 274Z" fill="#F9F0E3"/>
<path d="M136.353 204.068C153.505 204.068 167.409 203.516 167.409 202.835C167.409 202.155 153.505 201.603 136.353 201.603C119.201 201.603 105.297 202.155 105.297 202.835C105.297 203.516 119.201 204.068 136.353 204.068Z" fill="#F9F0E3"/>
<path opacity="0.5" d="M81.7142 201.991C92.6021 201.991 101.428 201.309 101.428 200.467C101.428 199.626 92.6021 198.944 81.7142 198.944C70.8264 198.944 62 199.626 62 200.467C62 201.309 70.8264 201.991 81.7142 201.991Z" fill="#F9EAD4"/>
<path d="M205.622 204.071C205.622 204.586 198.91 205 190.63 205C182.35 205 175.639 204.586 175.639 204.071C175.639 203.557 182.35 203.143 190.63 203.143C198.907 203.143 205.622 203.557 205.622 204.071Z" fill="#F9F0E3"/>
<path d="M169.29 130.298L168.597 131.514H169.979L169.29 130.298Z" fill="#E7CCA8"/>
<path d="M169.29 132.53L168.597 133.746H169.979L169.29 132.53Z" fill="#E7CCA8"/>
<path d="M170.722 131.213L170.081 132.53H171.361L170.722 131.213Z" fill="#E7CCA8"/>
<path d="M65.2461 137.554L64.5537 138.774H65.9353L65.2461 137.554Z" fill="#E7CCA8"/>
<path d="M65.2461 139.787L64.5537 141.003H65.9353L65.2461 139.787Z" fill="#E7CCA8"/>
<path d="M66.6787 138.47L66.0371 139.786H67.3171L66.6787 138.47Z" fill="#E7CCA8"/>
<path d="M167.908 184.178L167.219 185.394H168.597L167.908 184.178Z" fill="#E7CCA8"/>
<path d="M167.908 186.407L167.219 187.627H168.597L167.908 186.407Z" fill="#E7CCA8"/>
<path d="M169.341 185.09L168.702 186.407H169.979L169.341 185.09Z" fill="#E7CCA8"/>
<path d="M140.682 121.701C140.682 122.559 140.003 123.251 139.161 123.251C138.319 123.251 137.64 122.559 137.64 121.701C137.64 120.844 138.319 120.152 139.161 120.152C140 120.152 140.682 120.847 140.682 121.701Z" stroke="white" stroke-miterlimit="10"/>
<path d="M206.419 187.62H174.889C174.422 187.62 174.044 187.235 174.044 186.759C174.044 186.284 174.422 185.899 174.889 185.899H206.419C206.885 185.899 207.263 186.284 207.263 186.759C207.263 187.235 206.885 187.62 206.419 187.62Z" fill="#FEE6C6"/>
<path d="M179.244 202.836C178.77 202.836 178.38 202.541 178.361 202.166L177.541 187.09H180.946L180.127 202.166C180.104 202.541 179.717 202.836 179.244 202.836Z" fill="#FEE6C6"/>
<path d="M202.369 202.836C201.896 202.836 201.505 202.541 201.486 202.166L200.667 187.09H204.072L203.252 202.166C203.23 202.541 202.842 202.836 202.369 202.836Z" fill="#FEE6C6"/>
<path d="M190.656 202.836C190.182 202.836 189.792 202.541 189.773 202.166L188.953 187.09H192.358L191.538 202.166C191.519 202.541 191.129 202.836 190.656 202.836Z" fill="#FEE6C6"/>
<path d="M197.729 182.886C198.183 180.825 196.91 178.78 194.887 178.318C192.864 177.856 190.856 179.152 190.402 181.213C189.949 183.273 191.221 185.319 193.244 185.781C195.267 186.243 197.275 184.947 197.729 182.886Z" fill="#F9D8AC"/>
<path d="M195.956 178.908H192.085C191.869 178.908 191.694 178.73 191.694 178.51C191.694 178.29 191.869 178.112 192.085 178.112H195.956C196.172 178.112 196.347 178.29 196.347 178.51C196.347 178.73 196.172 178.908 195.956 178.908Z" fill="#F9D8AC"/>
<path d="M192.351 171.758C192.488 171.822 192.65 172.068 192.704 172.408C192.758 172.748 192.688 173.039 192.574 173.139C192.44 173.078 192.275 172.828 192.221 172.489C192.167 172.149 192.247 171.861 192.351 171.758Z" fill="#F9D8AC"/>
<path d="M192.606 173.105L192.527 173.118L192.879 175.299L192.958 175.286L192.606 173.105Z" fill="#F9D8AC"/>
<path d="M193.479 173.045C193.333 173.035 193.091 173.174 192.914 173.449C192.736 173.728 192.688 174.022 192.748 174.171C192.891 174.184 193.136 174.041 193.314 173.766C193.495 173.491 193.533 173.194 193.479 173.045Z" fill="#F9D8AC"/>
<path d="M191.688 173.346C191.824 173.288 192.094 173.339 192.352 173.543C192.609 173.747 192.745 174.012 192.736 174.174C192.606 174.236 192.329 174.181 192.072 173.977C191.815 173.773 191.685 173.504 191.688 173.346Z" fill="#F9D8AC"/>
<path d="M191.859 174.414C191.996 174.355 192.266 174.41 192.523 174.611C192.78 174.815 192.917 175.08 192.907 175.242C192.777 175.303 192.501 175.248 192.243 175.044C191.986 174.841 191.856 174.572 191.859 174.414Z" fill="#F9D8AC"/>
<path d="M193.654 174.116C193.508 174.106 193.266 174.245 193.088 174.52C192.911 174.795 192.863 175.093 192.923 175.242C193.066 175.255 193.311 175.112 193.489 174.837C193.666 174.559 193.708 174.262 193.654 174.116Z" fill="#F9D8AC"/>
<path d="M192.949 175.238L192.87 175.251L193.222 177.431L193.301 177.418L192.949 175.238Z" fill="#F9D8AC"/>
<path d="M193.825 175.177C193.679 175.168 193.438 175.307 193.26 175.582C193.082 175.86 193.035 176.154 193.095 176.303C193.238 176.316 193.482 176.177 193.66 175.899C193.838 175.624 193.879 175.326 193.825 175.177Z" fill="#F9D8AC"/>
<path d="M192.031 175.478C192.168 175.42 192.438 175.471 192.695 175.675C192.952 175.879 193.089 176.144 193.079 176.306C192.949 176.368 192.673 176.313 192.415 176.109C192.158 175.905 192.028 175.636 192.031 175.478Z" fill="#F9D8AC"/>
<path d="M192.206 176.549C192.342 176.491 192.612 176.546 192.87 176.747C193.127 176.95 193.263 177.216 193.254 177.378C193.124 177.439 192.847 177.384 192.59 177.18C192.333 176.976 192.199 176.705 192.206 176.549Z" fill="#F9D8AC"/>
<path d="M193.997 176.248C193.851 176.239 193.61 176.378 193.432 176.653C193.254 176.928 193.206 177.225 193.267 177.374C193.409 177.387 193.654 177.245 193.832 176.97C194.013 176.695 194.051 176.394 193.997 176.248Z" fill="#F9D8AC"/>
<path d="M193.295 177.369L193.216 177.382L193.568 179.563L193.647 179.549L193.295 177.369Z" fill="#F9D8AC"/>
<path d="M195.712 173.333C195.82 173.43 195.896 173.683 195.842 173.977C195.788 174.271 195.632 174.485 195.493 174.53C195.385 174.436 195.308 174.181 195.359 173.886C195.416 173.595 195.578 173.385 195.712 173.333Z" fill="#F9D8AC"/>
<path d="M195.46 174.51L195.118 176.4L195.196 176.415L195.538 174.525L195.46 174.51Z" fill="#F9D8AC"/>
<path d="M196.379 174.75C196.242 174.695 195.975 174.731 195.718 174.896C195.464 175.064 195.327 175.291 195.34 175.43C195.47 175.488 195.743 175.449 196.001 175.284C196.255 175.116 196.382 174.886 196.379 174.75Z" fill="#F9D8AC"/>
<path d="M194.59 174.414C194.737 174.41 194.975 174.54 195.156 174.789C195.337 175.038 195.385 175.3 195.324 175.426C195.181 175.433 194.94 175.3 194.759 175.051C194.578 174.802 194.54 174.54 194.59 174.414Z" fill="#F9D8AC"/>
<path d="M194.425 175.342C194.571 175.339 194.81 175.469 194.991 175.718C195.172 175.967 195.219 176.229 195.159 176.355C195.016 176.361 194.775 176.229 194.594 175.98C194.413 175.731 194.371 175.469 194.425 175.342Z" fill="#F9D8AC"/>
<path d="M196.21 175.676C196.074 175.621 195.807 175.656 195.55 175.821C195.296 175.989 195.159 176.216 195.172 176.355C195.302 176.413 195.575 176.374 195.832 176.209C196.086 176.044 196.217 175.812 196.21 175.676Z" fill="#F9D8AC"/>
<path d="M195.128 176.359L194.787 178.25L194.865 178.264L195.206 176.374L195.128 176.359Z" fill="#F9D8AC"/>
<path d="M196.045 176.598C195.909 176.543 195.642 176.578 195.385 176.743C195.131 176.911 194.994 177.138 195.007 177.277C195.137 177.335 195.41 177.296 195.667 177.131C195.921 176.966 196.048 176.737 196.045 176.598Z" fill="#F9D8AC"/>
<path d="M194.257 176.264C194.403 176.261 194.641 176.391 194.822 176.64C195.003 176.889 195.051 177.151 194.991 177.277C194.848 177.284 194.606 177.151 194.425 176.902C194.244 176.653 194.206 176.391 194.257 176.264Z" fill="#F9D8AC"/>
<path d="M194.792 178.208L194.45 180.098L194.528 180.112L194.87 178.222L194.792 178.208Z" fill="#F9D8AC"/>
<path d="M198.374 155.002C198.539 155.109 198.714 155.448 198.733 155.898C198.755 156.345 198.618 156.71 198.459 156.823C198.294 156.726 198.12 156.377 198.097 155.927C198.078 155.481 198.224 155.122 198.374 155.002Z" fill="#FEE6C6"/>
<path d="M198.51 156.781L198.405 156.786L198.541 159.659L198.646 159.654L198.51 156.781Z" fill="#FEE6C6"/>
<path d="M199.644 156.84C199.457 156.804 199.127 156.946 198.853 157.276C198.58 157.606 198.479 157.985 198.536 158.185C198.72 158.227 199.054 158.079 199.327 157.749C199.597 157.419 199.692 157.04 199.644 156.84Z" fill="#FEE6C6"/>
<path d="M197.284 156.956C197.468 156.904 197.811 157.011 198.113 157.312C198.415 157.613 198.555 157.978 198.517 158.186C198.339 158.244 197.989 158.131 197.688 157.83C197.383 157.529 197.252 157.16 197.284 156.956Z" fill="#FEE6C6"/>
<path d="M197.351 158.363C197.535 158.312 197.878 158.418 198.18 158.719C198.482 159.02 198.621 159.386 198.583 159.593C198.405 159.651 198.056 159.538 197.754 159.237C197.449 158.936 197.322 158.567 197.351 158.363Z" fill="#FEE6C6"/>
<path d="M199.711 158.247C199.523 158.211 199.193 158.354 198.92 158.684C198.647 159.014 198.545 159.392 198.602 159.593C198.786 159.635 199.12 159.486 199.393 159.156C199.663 158.826 199.758 158.448 199.711 158.247Z" fill="#FEE6C6"/>
<path d="M198.638 159.605L198.533 159.61L198.67 162.483L198.774 162.478L198.638 159.605Z" fill="#FEE6C6"/>
<path d="M199.777 159.651C199.59 159.615 199.26 159.758 198.987 160.088C198.713 160.418 198.612 160.796 198.669 160.997C198.853 161.039 199.187 160.89 199.46 160.56C199.73 160.23 199.825 159.848 199.777 159.651Z" fill="#FEE6C6"/>
<path d="M197.418 159.767C197.602 159.716 197.945 159.822 198.246 160.123C198.548 160.424 198.688 160.79 198.65 160.997C198.472 161.055 198.123 160.942 197.821 160.641C197.516 160.337 197.386 159.968 197.418 159.767Z" fill="#FEE6C6"/>
<path d="M197.484 161.175C197.669 161.123 198.012 161.23 198.313 161.531C198.615 161.832 198.755 162.197 198.717 162.404C198.539 162.463 198.19 162.349 197.888 162.048C197.583 161.748 197.453 161.379 197.484 161.175Z" fill="#FEE6C6"/>
<path d="M199.844 161.058C199.657 161.023 199.326 161.165 199.053 161.495C198.78 161.825 198.678 162.204 198.736 162.404C198.92 162.446 199.253 162.297 199.526 161.967C199.796 161.637 199.892 161.259 199.844 161.058Z" fill="#FEE6C6"/>
<path d="M198.777 162.404L198.672 162.409L198.809 165.281L198.913 165.276L198.777 162.404Z" fill="#FEE6C6"/>
<path d="M200.743 185.86H197.789C196.611 185.86 195.68 184.834 195.776 183.637L197.31 164.436H201.219L202.753 183.637C202.852 184.834 201.921 185.86 200.743 185.86Z" fill="#FEE6C6"/>
<path d="M201.623 164.494H196.91C196.633 164.494 196.411 164.268 196.411 163.986C196.411 163.705 196.633 163.479 196.91 163.479H201.623C201.899 163.479 202.122 163.705 202.122 163.986C202.122 164.265 201.899 164.494 201.623 164.494Z" fill="#FEE6C6"/>
<path d="M199.857 168.302C199.901 166.691 199.981 165.08 200.063 163.472C200.146 161.864 200.257 160.256 200.356 158.648C200.476 157.04 200.584 155.432 200.721 153.828L200.93 151.421C201.013 150.618 201.083 149.816 201.172 149.014C201.153 149.819 201.115 150.625 201.086 151.43L200.965 153.844C200.883 155.452 200.772 157.06 200.673 158.668C200.549 160.276 200.445 161.884 200.308 163.488C200.171 165.093 200.032 166.698 199.857 168.302Z" fill="#FEE6C6"/>
<path d="M200.006 166.458C199.768 163.239 199.676 160.017 199.619 156.795C199.574 153.572 199.568 150.35 199.708 147.124C199.946 150.343 200.038 153.566 200.095 156.788C200.136 160.01 200.143 163.233 200.006 166.458Z" fill="#FEE6C6"/>
<path d="M199.603 169.48C199.8 167.879 200.029 166.284 200.267 164.692C200.502 163.097 200.765 161.508 201.013 159.916C201.286 158.328 201.547 156.739 201.833 155.154L202.268 152.776C202.423 151.987 202.57 151.194 202.735 150.405C202.639 151.204 202.525 152.003 202.42 152.802L202.074 155.193C201.839 156.788 201.575 158.377 201.328 159.968C201.055 161.557 200.794 163.145 200.508 164.731C200.219 166.319 199.93 167.901 199.603 169.48Z" fill="#FEE6C6"/>
<path d="M199.018 147.173C199.018 147.36 198.869 147.512 198.685 147.512C198.501 147.512 198.351 147.36 198.351 147.173C198.351 146.985 198.501 146.833 198.685 146.833C198.869 146.833 199.018 146.985 199.018 147.173Z" stroke="#FEE6C6" stroke-miterlimit="10"/>
<path d="M200.806 146.341C201.249 146.341 201.607 145.976 201.607 145.526C201.607 145.076 201.249 144.711 200.806 144.711C200.364 144.711 200.006 145.076 200.006 145.526C200.006 145.976 200.364 146.341 200.806 146.341Z" stroke="#FEE6C6" stroke-miterlimit="10"/>
<path d="M202.417 149.725C202.563 149.725 202.681 149.605 202.681 149.457C202.681 149.308 202.563 149.188 202.417 149.188C202.271 149.188 202.153 149.308 202.153 149.457C202.153 149.605 202.271 149.725 202.417 149.725Z" stroke="#FEE6C6" stroke-miterlimit="10"/>
<path d="M203.319 155.255C203.319 155.394 203.208 155.507 203.071 155.507C202.934 155.507 202.823 155.394 202.823 155.255C202.823 155.115 202.934 155.002 203.071 155.002C203.208 155.002 203.319 155.115 203.319 155.255Z" stroke="#FEE6C6" stroke-miterlimit="10"/>
<path d="M196.98 153.122C197.218 153.122 197.412 152.925 197.412 152.682C197.412 152.439 197.218 152.242 196.98 152.242C196.741 152.242 196.548 152.439 196.548 152.682C196.548 152.925 196.741 153.122 196.98 153.122Z" stroke="#FEE6C6" stroke-miterlimit="10"/>
<path d="M186.603 173.139H175.594V185.356H186.603V173.139Z" fill="#F9D8AC"/>
<path d="M185.37 174.508H176.83V183.987H185.37V174.508Z" fill="#FEE6C6"/>
<path d="M75.7081 117.395H73.9358V197.222H75.7081V117.395Z" fill="#FEE6C6"/>
<path d="M83.8644 200.137H65.7827C65.7827 198.167 69.8323 196.572 74.8252 196.572C79.818 196.572 83.8644 198.167 83.8644 200.137Z" fill="#FEE6C6"/>
<path d="M87.26 118.492H62.3845L62.8451 116.848L62.9372 116.525L63.7725 113.548L63.8646 113.225L68.4192 97H81.8606L85.9355 113.225L86.0181 113.548L86.7645 116.525L86.8471 116.848L87.26 118.492Z" fill="#FEE6C6"/>
<path d="M64.017 114.276L63.1689 115.771H64.8618L64.017 114.276Z" fill="#E5CAA6"/>
<path d="M65.9352 115.771L65.0872 114.276H66.7832L65.9352 115.771Z" fill="#E5CAA6"/>
<path d="M67.6281 114.276L66.7832 115.771H68.4761L67.6281 114.276Z" fill="#E5CAA6"/>
<path d="M69.5494 115.771L68.7014 114.276H70.3943L69.5494 115.771Z" fill="#E5CAA6"/>
<path d="M71.2426 114.276L70.3945 115.771H72.0874L71.2426 114.276Z" fill="#E5CAA6"/>
<path d="M73.161 115.771L72.313 114.276H74.009L73.161 115.771Z" fill="#E5CAA6"/>
<path d="M74.8539 114.276L74.009 115.771H75.7019L74.8539 114.276Z" fill="#E5CAA6"/>
<path d="M76.7721 115.771L75.9272 114.276H77.6201L76.7721 115.771Z" fill="#E5CAA6"/>
<path d="M78.4684 114.276L77.6204 115.771H79.3132L78.4684 114.276Z" fill="#E5CAA6"/>
<path d="M80.3868 115.771L79.5388 114.276H81.2317L80.3868 115.771Z" fill="#E5CAA6"/>
<path d="M82.0797 114.276L81.2317 115.771H82.9277L82.0797 114.276Z" fill="#E5CAA6"/>
<path d="M83.9979 115.771L83.1531 114.276H84.846L83.9979 115.771Z" fill="#E5CAA6"/>
<path d="M85.691 114.276L84.8462 115.771H86.5391L85.691 114.276Z" fill="#E5CAA6"/>
<path d="M86.0181 113.549H63.7725L63.8646 113.225H85.9355L86.0181 113.549Z" fill="#E5CAA6"/>
<path d="M86.847 116.848H62.845L62.9371 116.525H86.7644L86.847 116.848Z" fill="#E5CAA6"/>
<path d="M90.0671 165.846C90.715 163.29 92.1093 161.006 93.5418 158.806C94.8122 156.852 96.143 154.908 97.82 153.303C99.497 151.695 101.565 150.43 103.839 150.074C103.283 151.899 102.727 153.724 102.171 155.548C101.615 157.373 101.041 159.237 99.9449 160.786C98.7983 162.404 97.1372 163.588 95.3649 164.436C93.5894 165.283 91.6901 165.817 89.8003 166.348" fill="#66A986"/>
<path d="M90.1849 165.879C91.1409 162.421 93.2181 159.276 95.3143 156.419C96.3974 154.941 97.5884 153.55 99.0304 152.427C99.7133 151.893 103.197 149.541 103.544 150.651C103.696 151.142 102.851 152.919 102.708 153.388C102.442 154.265 102.181 155.141 101.908 156.015C101.397 157.655 100.841 159.315 99.8467 160.725C97.509 164.029 93.4309 165.203 89.772 166.232C89.6259 166.274 89.6862 166.507 89.8355 166.465C93.4118 165.459 97.2931 164.326 99.7355 161.266C102.146 158.247 102.854 153.724 103.957 150.107C103.985 150.013 103.893 149.942 103.81 149.958C100.371 150.599 97.706 152.899 95.6002 155.64C93.2784 158.661 90.9853 162.091 89.9562 165.818C89.9117 165.963 90.1404 166.028 90.1849 165.879Z" fill="#66A986"/>
<path d="M86.2561 174.436C88.7653 168.975 91.2712 163.511 93.7804 158.05C93.9106 157.768 93.4977 157.522 93.3675 157.804C90.8583 163.265 88.3524 168.729 85.8432 174.191C85.7162 174.472 86.1259 174.718 86.2561 174.436Z" fill="#80B996"/>
<path d="M86.6182 162.683C86.7643 156.959 88.886 151.175 90.2994 145.671C90.3375 145.519 90.1088 145.455 90.0707 145.607C88.6509 151.139 86.5293 156.927 86.3832 162.683C86.3768 162.838 86.615 162.838 86.6182 162.683Z" fill="#80B996"/>
<path d="M82.832 163.88C80.4372 161.712 78.0234 159.522 76.1463 156.875C74.2723 154.229 72.9542 151.055 73.0591 147.794C74.5868 150.262 77.8137 151.185 79.405 153.611C79.929 154.41 80.2435 155.332 80.5516 156.241C81.4155 158.787 82.2825 161.337 83.1465 163.883" fill="#66A986"/>
<path d="M82.9148 163.795C80.4025 161.521 77.8489 159.217 75.9401 156.37C74.9904 154.953 74.2122 153.404 73.7231 151.76C73.469 150.906 73.2975 150.033 73.2149 149.146C73.1451 148.383 72.9227 148.108 73.4786 148.577C74.2662 149.243 74.9427 149.961 75.7876 150.57C76.9469 151.401 78.1729 152.181 79.0463 153.342C80.1738 154.84 80.6312 156.859 81.2315 158.625C81.8318 160.389 82.4289 162.152 83.0292 163.915C83.08 164.061 83.3087 163.999 83.2579 163.85C82.5909 161.89 81.9271 159.932 81.2601 157.972C80.736 156.425 80.3263 154.72 79.3766 153.371C77.725 151.023 74.7712 150.13 73.1578 147.729C73.0942 147.632 72.9354 147.664 72.9354 147.79C72.8846 154.733 78.0204 159.683 82.7433 163.964C82.8608 164.07 83.0324 163.899 82.9148 163.795Z" fill="#66A986"/>
<path d="M78.176 151.984C82.0922 160.107 84.6648 168.813 85.7987 177.791C85.8368 178.095 86.3133 178.102 86.2751 177.791C85.1317 168.726 82.5432 159.946 78.5857 151.738C78.4523 151.456 78.0394 151.702 78.176 151.984Z" fill="#80B996"/>
<path d="M85.2428 144.703C83.2831 137.706 83.3403 130.135 85.4079 123.166C86.8467 125.272 87.9489 127.618 88.6603 130.077C89.4543 132.817 89.7624 135.732 89.2955 138.55C88.8286 141.368 87.5518 144.082 85.5032 146.033" fill="#66A986"/>
<path d="M85.3576 144.672C84.3539 140.977 83.8584 137.169 83.9442 133.335C83.9918 131.281 84.1951 129.233 84.5635 127.211C84.7224 126.341 84.9129 125.477 85.1289 124.619C85.5005 123.16 85.761 123.882 86.3136 124.852C89.9884 131.284 91.0651 140.32 85.4148 145.95C85.3036 146.06 85.4719 146.231 85.5831 146.121C91.8464 139.88 89.9725 129.815 85.5069 123.105C85.4497 123.021 85.3195 123.031 85.2877 123.135C83.2518 130.197 83.1978 137.641 85.1225 144.736C85.1702 144.885 85.3989 144.821 85.3576 144.672Z" fill="#66A986"/>
<path d="M90.785 163.88C90.2641 160.36 91.3758 156.749 93.1766 153.698C94.9775 150.647 97.439 148.066 99.8783 145.516C100.472 150.375 99.459 155.426 97.042 159.658C96.3782 160.822 95.5905 161.945 94.536 162.757C93.4816 163.569 92.1222 164.048 90.8231 163.808" fill="#80B996"/>
<path d="M90.9057 163.879C90.4515 160.201 91.5377 156.642 93.4243 153.52C94.3835 151.935 95.5269 150.476 96.737 149.081C97.2865 148.45 97.8519 147.829 98.4236 147.218C98.6681 146.956 98.9095 146.626 99.189 146.406C99.6178 146.069 99.5638 145.833 99.8369 146.325C100.097 146.788 99.9227 147.972 99.9163 148.499C99.9068 149.314 99.856 150.13 99.7639 150.942C99.5543 152.727 99.1382 154.5 98.5157 156.186C97.2865 159.522 94.9775 164.171 90.8167 163.689C90.6643 163.672 90.6674 163.915 90.8167 163.931C94.6281 164.374 96.8895 160.618 98.2266 157.538C99.8719 153.756 100.44 149.615 99.9894 145.516C99.9799 145.419 99.8655 145.348 99.7861 145.429C95.0029 150.437 89.7273 156.328 90.6611 163.879C90.6865 164.032 90.9247 164.035 90.9057 163.879Z" fill="#80B996"/>
<path d="M87.0816 157.587C86.7863 153.284 87.6375 148.961 89.0286 144.885C90.4197 140.809 92.3445 136.949 94.2629 133.099C95.5365 137.502 95.943 142.235 94.8695 146.694C93.796 151.152 91.1439 155.299 87.2658 157.635" fill="#80B996"/>
<path d="M87.2024 157.587C86.9515 153.152 87.7963 148.794 89.2478 144.627C90.0196 142.41 90.947 140.253 91.9412 138.13C92.4176 137.108 92.9131 136.095 93.4117 135.086C93.4689 134.969 93.9739 133.704 94.0946 133.711C94.4948 133.727 94.5202 134.516 94.6028 134.869C96.5243 143.148 94.7647 152.796 87.2055 157.532C87.0753 157.613 87.196 157.823 87.3262 157.742C95.6223 152.547 96.8483 141.899 94.3804 133.067C94.355 132.97 94.2089 132.941 94.1613 133.038C90.3404 140.709 86.4623 148.748 86.9642 157.587C86.9737 157.742 87.2119 157.746 87.2024 157.587Z" fill="#80B996"/>
<path d="M84.5125 142.093C86.415 153.375 86.7485 164.857 85.5193 176.235C85.4844 176.546 85.964 176.542 85.9957 176.235C87.2281 164.815 86.8787 153.287 84.973 141.964C84.919 141.656 84.4617 141.786 84.5125 142.093Z" fill="#80B996"/>
<path d="M85.3063 145.772C83.4801 144.219 81.8888 141.582 81.46 139.201C81.0313 136.82 81.1583 134.37 81.3044 131.954C81.4537 129.537 81.622 127.098 81.279 124.7C83.0608 127.143 84.5599 129.799 85.7383 132.598C86.6308 134.717 87.3454 136.952 87.4248 139.256C87.5042 141.559 86.8944 143.953 85.3984 145.684" fill="#80B996"/>
<path d="M85.3923 145.688C82.4385 143.035 81.3046 139.524 81.2887 135.593C81.2824 133.772 81.4444 131.957 81.5333 130.142C81.5778 129.233 81.6095 128.324 81.5968 127.415C81.5937 127.153 81.3491 125.321 81.5079 125.224C82.0796 124.875 86.1228 133.853 86.3483 134.513C87.6124 138.198 87.8856 142.413 85.3161 145.6C85.2208 145.72 85.386 145.891 85.4844 145.772C90.5758 139.456 85.3002 130.1 81.3809 124.642C81.3205 124.558 81.1426 124.571 81.1585 124.704C81.6889 128.939 80.7869 133.167 81.1141 137.405C81.3682 140.708 82.7688 143.659 85.2208 145.859C85.3383 145.963 85.5067 145.791 85.3923 145.688Z" fill="#80B996"/>
<path d="M82.6221 162.385C83.5432 159.088 83.0001 154.594 81.4565 151.547C79.9129 148.502 77.5085 145.982 74.8406 143.892C74.9867 147.405 75.2535 150.967 76.4032 154.284C77.5562 157.603 79.5381 160.803 82.6221 162.385Z" fill="#80B996"/>
<path d="M82.737 162.417C84.6617 154.908 80.5455 148.286 74.9269 143.808C74.8538 143.75 74.7173 143.779 74.7236 143.896C75.0158 150.609 76.083 158.959 82.5623 162.492C82.6989 162.566 82.8164 162.356 82.683 162.282C79.7387 160.677 77.8489 157.827 76.6833 154.705C76.083 153.097 75.6987 151.411 75.4446 149.713C75.2731 148.561 75.1651 147.403 75.0857 146.241C75.0603 145.863 74.9872 145.445 75.0158 145.067C75.0571 144.517 74.8506 144.358 75.3842 144.484C75.921 144.611 76.7976 145.714 77.1883 146.092C77.7663 146.652 78.319 147.241 78.8399 147.856C80.0023 149.227 81.0282 150.754 81.7238 152.427C83.007 155.5 83.3404 159.114 82.5083 162.353C82.4702 162.505 82.6989 162.57 82.737 162.417Z" fill="#80B996"/>
<path d="M96.0832 188.154C96.0832 193.628 93.9964 198.397 90.9124 200.878H81.1871C78.1031 198.397 76.0164 193.628 76.0164 188.154C76.0164 183.039 77.8395 178.539 80.5932 175.944H91.5032C94.2601 178.539 96.0832 183.036 96.0832 188.154Z" fill="#FEE6C6"/>
<path d="M81.5268 181.227L78.916 185.837H84.1408L81.5268 181.227Z" stroke="#E6CAA6" stroke-miterlimit="10"/>
<path d="M81.5268 182.353L79.8689 185.278H83.1848L81.5268 182.353Z" stroke="#E6CAA6" stroke-width="0.5" stroke-miterlimit="10"/>
<path d="M85.3001 196.365L82.1431 198.222V194.511L85.3001 196.365Z" stroke="#E6CAA6" stroke-width="0.75" stroke-miterlimit="10"/>
<path d="M84.2521 196.365L82.6672 197.297V195.433L84.2521 196.365Z" stroke="#E6CAA6" stroke-width="0.5" stroke-miterlimit="10"/>
<path d="M89.7277 177.3L87.1995 181.761H92.259L89.7277 177.3Z" stroke="#E6CAA6" stroke-miterlimit="10"/>
<path d="M89.7276 178.992L88.6382 180.913H90.8202L89.7276 178.992Z" stroke="#E6CAA6" stroke-width="0.5" stroke-miterlimit="10"/>
<path d="M89.7277 196.893L86.8247 190.095H92.6339L89.7277 196.893Z" stroke="#E6CAA6" stroke-miterlimit="10"/>
<path d="M89.7274 195.236L87.8853 190.924H91.5727L89.7274 195.236Z" stroke="#E6CAA6" stroke-width="0.5" stroke-miterlimit="10"/>
<path d="M80.1006 191.147C80.1006 190.694 80.4627 190.325 80.9073 190.325C81.352 190.325 81.7141 190.694 81.7141 191.147C81.7141 191.6 81.352 191.968 80.9073 191.968C80.4627 191.968 80.1006 191.6 80.1006 191.147Z" stroke="#E6CAA6" stroke-miterlimit="10"/>
<path d="M89.7275 187.005C90.4432 187.005 91.0234 186.414 91.0234 185.685C91.0234 184.956 90.4432 184.365 89.7275 184.365C89.0118 184.365 88.4316 184.956 88.4316 185.685C88.4316 186.414 89.0118 187.005 89.7275 187.005Z" stroke="#E6CAA6" stroke-miterlimit="10"/>
<path d="M84.506 179.28C84.7849 179.28 85.011 179.049 85.011 178.765C85.011 178.481 84.7849 178.251 84.506 178.251C84.2271 178.251 84.001 178.481 84.001 178.765C84.001 179.049 84.2271 179.28 84.506 179.28Z" stroke="#E6CAA6" stroke-miterlimit="10"/>
<g opacity="0.25">
<path opacity="0.25" d="M92.2334 176.708C90.4929 185.465 86.5037 193.754 80.7485 200.497C80.8915 200.626 81.0376 200.759 81.1868 200.878H90.9122C93.9962 198.397 96.0829 193.628 96.0829 188.154C96.0829 183.505 94.5774 179.37 92.2334 176.708Z" fill="#FEE6C6"/>
</g>
<path d="M91.4873 175.944H80.6123C80.2819 175.944 80.0151 175.672 80.0151 175.336V175.21C80.0151 174.873 80.2819 174.601 80.6123 174.601H91.4873C91.8176 174.601 92.0844 174.873 92.0844 175.21V175.336C92.0876 175.672 91.8176 175.944 91.4873 175.944Z" fill="#F9D8AC"/>
<path d="M92.1797 161.46C92.4846 160.405 92.8689 159.373 93.2977 158.361C93.7233 157.348 94.2124 156.361 94.7365 155.397C95.2701 154.436 95.8418 153.501 96.4706 152.605C96.7883 152.158 97.109 151.715 97.4425 151.282C97.7856 150.855 98.1254 150.431 98.4907 150.023C98.3382 150.25 98.1826 150.476 98.0238 150.696L97.5664 151.376C97.2615 151.828 96.9629 152.285 96.6739 152.744C96.0959 153.669 95.5369 154.601 95.0128 155.556C94.4824 156.507 93.9933 157.481 93.5168 158.464C93.0436 159.451 92.6085 160.454 92.1797 161.46Z" fill="#66A986"/>
<path d="M84.5505 142.99C84.3758 141.996 84.2361 141 84.1027 140.003C83.9661 139.007 83.8518 138.007 83.7374 137.011C83.6326 136.011 83.5278 135.011 83.4452 134.008L83.3245 132.504C83.2959 132.003 83.2578 131.498 83.2388 130.996C83.3277 131.491 83.3976 131.99 83.4802 132.488L83.6866 133.982C83.8232 134.979 83.9375 135.979 84.0519 136.978C84.1567 137.978 84.2615 138.978 84.3441 139.984C84.4298 140.98 84.506 141.983 84.5505 142.99Z" fill="#66A986"/>
<path d="M77.0962 148.635C77.6361 149.492 78.1157 150.385 78.5667 151.294C79.0209 152.204 79.4211 153.135 79.7959 154.083C80.1612 155.031 80.4978 155.992 80.7837 156.969C80.9234 157.458 81.06 157.949 81.1839 158.441C81.2982 158.936 81.4157 159.431 81.5078 159.933L81.0346 158.486C80.879 158.004 80.717 157.526 80.5518 157.047C80.2152 156.092 79.8721 155.141 79.5037 154.203C79.1416 153.261 78.7478 152.33 78.3508 151.401C77.9442 150.473 77.5218 149.557 77.0962 148.635Z" fill="#66A986"/>
<path d="M88.5144 153.465C89.0131 152.233 89.5085 151.003 89.9754 149.761C90.4423 148.518 90.9029 147.276 91.3158 146.018C91.7541 144.766 92.1447 143.497 92.5259 142.229C92.7164 141.595 92.9006 140.958 93.0817 140.317L93.6184 138.395C93.5073 139.052 93.3675 139.702 93.231 140.356C93.0817 141.006 92.9229 141.653 92.7609 142.297C92.4242 143.588 92.0304 144.859 91.6143 146.124C91.176 147.38 90.7155 148.632 90.1978 149.858C89.6832 151.078 89.1306 152.288 88.5144 153.465Z" fill="#66A986"/>
<path d="M148.025 140.456H123.972C118.147 140.456 113.425 145.267 113.425 151.201V177.468H158.576V151.201C158.576 145.267 153.854 140.456 148.025 140.456Z" fill="#5C6193"/>
<path d="M153.231 171.687H118.767V177.468H153.231V171.687Z" fill="#4E5567"/>
<path d="M153.231 177.468H116.096V192.162H153.231V177.468Z" fill="#8E97FD"/>
<path d="M156.172 194.34H115.829C114.648 194.34 113.692 193.366 113.692 192.163H158.31C158.31 193.366 157.351 194.34 156.172 194.34Z" fill="#3F414E"/>
<path d="M114.762 201.143H113.425L115.829 194.34H117.7L114.762 201.143Z" fill="#3F414E"/>
<path d="M157.24 201.143H158.577L156.173 194.34H154.302L157.24 201.143Z" fill="#3F414E"/>
<path d="M109.594 144.672C108.302 143.795 107.215 142.546 106.704 141.052C106.193 139.557 106.307 137.81 107.174 136.496C108.041 135.183 109.696 134.4 111.211 134.753C111.274 132.669 113.155 131.152 114.975 130.197C116.979 129.146 119.072 128.538 121.12 129.492C122.261 130.026 123.461 130.893 124.065 132.015C124.668 133.135 125.027 134.371 125.376 135.6C126.809 134.733 128.759 134.866 130.068 135.917C131.376 136.969 131.951 138.871 131.456 140.492C133.075 139.793 135.038 139.483 136.528 140.437C138.094 141.44 138.634 143.501 138.742 145.384C138.834 147.001 138.675 148.716 137.773 150.049C136.706 151.628 134.816 152.372 133.028 152.97C129.934 154.002 126.749 154.866 123.493 154.963C120.237 155.06 116.883 154.342 114.215 152.443C111.544 150.544 109.661 147.36 109.756 144.044" fill="#4E5567"/>
<path d="M107.889 147.027C106.269 147.114 104.732 148.159 104.03 149.651C103.328 151.142 103.486 153.016 104.43 154.358C103.083 154.378 101.778 155.193 101.149 156.406C100.52 157.619 100.599 159.176 101.343 160.318C101.971 161.282 102.997 161.909 104.061 162.317C107.012 163.446 110.366 163.064 113.294 161.877C114.978 161.194 116.594 160.227 117.728 158.791C118.862 157.354 119.453 155.39 118.964 153.614C118.621 152.375 117.792 151.324 116.814 150.515C115.832 149.706 114.698 149.114 113.571 148.541C111.627 147.554 109.591 146.577 107.419 146.539" fill="#3F4553"/>
<path d="M117.433 168.758H108.083C105.132 168.758 102.74 166.322 102.74 163.317C102.74 160.311 105.132 157.875 108.083 157.875H115.493C116.566 157.875 117.436 158.761 117.436 159.855V168.758H117.433Z" fill="#8E97FD"/>
<path d="M118.767 192.163H112.545C110.376 192.163 108.616 190.37 108.616 188.16V157.872H114.838C117.007 157.872 118.767 159.664 118.767 161.874V192.163Z" fill="#8E97FD"/>
<path d="M119.866 130.766C120.711 130.563 121.664 130.718 122.413 131.242C122.782 131.504 123.106 131.844 123.312 132.248C123.436 132.439 123.499 132.659 123.579 132.866C123.639 133.08 123.681 133.303 123.715 133.516C123.611 133.319 123.544 133.112 123.436 132.924C123.325 132.74 123.236 132.546 123.102 132.381C122.871 132.031 122.569 131.74 122.232 131.504C121.899 131.265 121.518 131.093 121.121 130.974C120.72 130.864 120.301 130.786 119.866 130.766Z" fill="white"/>
<path d="M134.006 141.42C134.895 141.404 135.816 141.74 136.49 142.391C136.661 142.549 136.798 142.743 136.934 142.931C137.042 143.141 137.169 143.339 137.23 143.565C137.319 143.782 137.347 144.015 137.382 144.241C137.404 144.471 137.395 144.701 137.388 144.924C137.29 144.481 137.192 144.047 137.001 143.659C136.826 143.264 136.579 142.911 136.27 142.62C135.969 142.323 135.613 142.08 135.232 141.883C134.841 141.695 134.435 141.53 134.006 141.42Z" fill="white"/>
<path d="M128.654 136.671C128.851 136.7 129.038 136.771 129.219 136.862C129.4 136.952 129.566 137.072 129.712 137.211C129.858 137.354 129.979 137.528 130.061 137.716C130.147 137.904 130.179 138.114 130.172 138.314C130.109 138.124 130.055 137.936 129.95 137.774C129.848 137.612 129.737 137.46 129.597 137.328C129.327 137.062 129.003 136.852 128.654 136.671Z" fill="white"/>
<path d="M133.489 150.709C133.889 149.227 133.758 147.551 132.914 146.277C132.069 145.002 130.449 144.232 128.988 144.62C129.436 143.549 128.788 142.271 127.841 141.615C126.898 140.958 125.729 140.754 124.611 140.495C121.327 139.735 118.18 138.36 115.375 136.461C113.955 135.5 113.72 135.717 113.05 134.167C112.65 134.766 111.865 135.739 111.843 136.48C110.576 135.303 108.035 135.18 107.171 136.493C106.304 137.807 106.19 139.554 106.701 141.048C107.212 142.543 108.299 143.792 109.591 144.669L109.75 144.041C109.655 147.357 111.538 150.541 114.209 152.44C116.881 154.339 120.235 155.057 123.487 154.96C126.488 154.87 129.429 154.129 132.294 153.203C132.825 152.437 133.247 151.605 133.489 150.709Z" fill="#3F4553"/>
<path d="M115.88 161.874V188.409H110.798V166.028H109.404C107.933 166.028 106.742 164.815 106.742 163.317C106.742 161.819 107.933 160.605 109.404 160.605H114.635C115.324 160.605 115.88 161.172 115.88 161.874Z" stroke="#8C96FF" stroke-miterlimit="10"/>
<path d="M121.203 139.916C120.99 138.22 122.045 136.687 123.557 136.49C125.072 136.292 126.472 137.502 126.688 139.198C126.901 140.893 125.847 142.426 124.335 142.624C122.82 142.821 121.419 141.608 121.203 139.916Z" fill="#8E97FD"/>
<path d="M121.203 139.917C121.416 141.612 122.82 142.826 124.335 142.625C124.964 142.544 125.51 142.227 125.923 141.771C124.043 140.541 123.712 137.491 123.652 136.484C123.62 136.488 123.592 136.488 123.56 136.491C122.045 136.688 120.99 138.222 121.203 139.917Z" fill="#8E97FD"/>
<path d="M117.166 146.92L118.233 151.819L121.975 152.906C121.975 152.906 123.312 151.544 123.312 151.272C123.312 151 121.441 145.83 121.441 145.83L117.166 146.92Z" fill="#FDBCA0"/>
<path d="M121.438 145.833L117.163 146.92L117.528 148.593C118.294 148.929 119.158 149.179 120.142 149.301C120.679 149.369 121.232 149.266 121.702 148.988C121.943 148.845 122.169 148.671 122.385 148.486C121.915 147.15 121.438 145.833 121.438 145.833Z" fill="#DF8370"/>
<path d="M111.287 137.124C111.287 137.124 110.754 147.739 120.104 148.282C123.042 147.195 124.913 143.112 124.379 139.845C123.846 136.58 120.371 131.135 115.295 132.769C112.624 133.859 111.287 137.124 111.287 137.124Z" fill="#FDBCA0"/>
<path d="M140.943 149.373L147.736 140.912C148.006 140.576 148.156 140.155 148.156 139.719V137.422C148.156 137.247 148.267 137.088 148.429 137.033C148.689 136.946 148.956 137.143 148.956 137.422V139.033L151.36 134.678L154.565 134.406L150.29 142.025L143.877 153.456L140.943 149.373Z" fill="#FDBCA0"/>
<path d="M170.865 141.75L182.087 145.562L185.539 142.598C186.832 141.488 188.728 141.382 190.071 142.427C190.849 143.032 191.259 143.882 190.367 145.018C188.229 147.739 182.083 150.732 182.083 150.732L169.525 148.011L170.865 141.75Z" fill="#FDBCA0"/>
<path opacity="0.5" d="M169.531 148.011L175.766 149.363C176.166 147.076 175.855 144.766 175.566 143.349L170.868 141.754L169.531 148.011Z" fill="#DF8370"/>
<path d="M136.401 161.346C136.401 161.346 150.468 145.426 156.76 139.99C157.808 139.084 159.167 138.644 160.539 138.758C165.183 139.139 174.873 140.935 174.873 140.935C174.873 140.935 176.744 148.011 173.269 152.094C171.132 151.822 161.515 149.916 161.515 149.916L142.01 171.686L136.401 161.346Z" fill="#739BE0"/>
<path d="M173.803 155.63L182.886 165.97L190.461 167.293C191.869 167.539 192.751 169.053 192.192 170.392C191.83 171.256 190.963 172.421 189.032 171.958C184.49 170.871 180.215 169.509 180.215 169.509L169.528 160.8L173.803 155.63Z" fill="#FDBCA0"/>
<path opacity="0.5" d="M179.399 162L173.803 155.63L169.528 160.8L176.998 166.888C178.23 165.591 179.275 163.938 179.399 162Z" fill="#DF8370"/>
<path opacity="0.2" d="M156.7 143.138L137.062 162.56L142.013 171.686L161.518 149.916C161.518 149.916 171.135 151.822 173.273 152.093C173.495 151.835 173.692 151.56 173.873 151.278C170.379 148.37 166.209 145.031 163.103 142.698C161.146 141.233 158.44 141.417 156.7 143.138Z" fill="#739BE0"/>
<path d="M128.654 170.053C128.654 170.053 133.463 177.128 140.409 176.313C146.895 175.55 154.076 166.012 159.132 157.885C159.65 157.05 160.809 156.956 161.454 157.691C165.43 162.23 172.469 168.966 172.469 168.966C172.469 168.966 179.148 165.701 179.148 160.528C177.306 158.276 169.62 150.201 165.024 145.403C163.042 143.333 159.834 143.155 157.639 144.989L136.131 162.977L128.654 170.053Z" fill="#97B8FF"/>
<g opacity="0.5">
<path opacity="0.5" d="M140.409 176.313C146.895 175.549 154.076 166.011 159.132 157.884C159.65 157.05 160.809 156.956 161.454 157.69C165.43 162.229 172.469 168.965 172.469 168.965C172.469 168.965 174.025 168.202 175.635 166.833C172.056 163.203 168.264 159.793 164.281 156.632C162.991 155.61 161.46 154.555 159.856 154.879C158.462 155.164 157.481 156.403 156.626 157.561C154.778 160.065 152.932 162.569 151.084 165.073C149.067 167.807 146.936 170.638 143.915 172.129C141.34 173.398 138.249 173.54 135.572 172.514C133.494 171.718 131.69 170.224 130.468 168.341L128.654 170.055C128.654 170.052 133.463 177.128 140.409 176.313Z" fill="#97B8FF"/>
</g>
<path d="M154.568 168.758H163.919C166.87 168.758 169.261 166.322 169.261 163.317C169.261 160.311 166.87 157.875 163.919 157.875H156.509C155.435 157.875 154.565 158.761 154.565 159.855V168.758H154.568Z" fill="#8E97FD"/>
<path d="M153.231 192.163H159.453C161.622 192.163 163.382 190.37 163.382 188.16V157.872H157.16C154.991 157.872 153.231 159.664 153.231 161.874V192.163Z" fill="#8E97FD"/>
<path d="M155.89 161.874V188.409H160.971V166.028H162.366C163.836 166.028 165.027 164.815 165.027 163.317C165.027 161.819 163.836 160.605 162.366 160.605H157.135C156.445 160.605 155.89 161.172 155.89 161.874Z" stroke="#8C96FF" stroke-miterlimit="10"/>
<path d="M113.691 142.022L109.15 143.384C109.15 143.384 110.487 148.01 117.166 151.003L117.966 150.731C117.966 150.731 121.705 152.863 122.642 149.211C124.154 148.674 126.056 148.227 127.546 147.92C129.086 147.603 130.684 147.852 132.059 148.619L137.401 151.605C137.906 151.886 138.538 151.767 138.91 151.317L142.547 146.92L146.256 149.764L141.114 158.101C140.781 158.645 140.091 158.836 139.532 158.541L134.533 155.901L137.471 160.528C137.471 160.528 137.204 168.965 128.654 170.052C125.716 167.06 121.975 163.249 119.837 161.615C117.7 159.981 110.753 155.354 108.883 153.449C107.012 151.543 102.203 144.74 101.937 141.203C101.937 139.298 112.624 137.939 112.624 137.939L113.691 142.022Z" fill="#FFFFFE"/>
<path d="M111.983 152.64C106.399 148.742 104.033 143.649 103.032 140.146C102.359 140.472 101.937 140.828 101.937 141.207C102.203 144.746 107.012 151.547 108.883 153.452C110.753 155.358 117.7 159.984 119.837 161.618C120.218 161.909 120.653 162.272 121.12 162.686C119.98 160.22 117.471 156.474 111.983 152.64Z" fill="#F2F2F2"/>
<path d="M129.433 152.388C129.655 152.323 129.884 152.288 130.115 152.268C130.347 152.246 130.579 152.249 130.814 152.272C131.278 152.317 131.748 152.437 132.17 152.67C132.596 152.89 132.971 153.226 133.244 153.624C133.396 153.815 133.495 154.038 133.606 154.252C133.711 154.468 133.768 154.705 133.851 154.931L133.828 154.886C134.089 155.245 134.33 155.62 134.581 155.986C134.832 156.355 135.067 156.73 135.302 157.112C135.007 156.778 134.715 156.442 134.438 156.099C134.162 155.753 133.873 155.413 133.606 155.06L133.597 155.051L133.581 155.015C133.495 154.808 133.428 154.591 133.33 154.387C133.222 154.193 133.133 153.986 132.99 153.815C132.872 153.627 132.714 153.475 132.561 153.313C132.39 153.177 132.228 153.029 132.031 152.925C131.653 152.702 131.233 152.54 130.789 152.462C130.347 152.385 129.89 152.349 129.433 152.388Z" fill="#97B8FF"/>
<path d="M118.929 140.608C119.164 140.987 119.367 141.751 119.961 141.631C120.165 141.589 120.26 141.43 120.415 141.307C120.962 140.874 121.248 141.54 120.86 141.906C120.66 142.093 120.381 142.139 120.123 142.168C119.974 142.184 119.971 142.427 120.123 142.411C120.498 142.368 120.892 142.281 121.133 141.958C121.327 141.699 121.365 141.343 121.152 141.084C120.955 140.851 120.663 140.812 120.415 140.981C120.184 141.136 120.053 141.505 119.675 141.34C119.405 141.223 119.278 140.715 119.135 140.486C119.053 140.356 118.846 140.476 118.929 140.608Z" fill="#444359"/>
<path d="M117.668 144.177C118.91 145.238 120.638 145.009 121.556 143.643C121.642 143.514 121.435 143.391 121.349 143.52C120.527 144.746 118.958 144.963 117.837 144.006C117.719 143.905 117.551 144.077 117.668 144.177Z" fill="#444359"/>
<path d="M114.787 139.89C115.076 139.133 115.807 138.716 116.594 138.858C116.744 138.884 116.807 138.651 116.658 138.625C115.737 138.46 114.895 138.939 114.559 139.829C114.501 139.971 114.733 140.032 114.787 139.89Z" fill="#444359"/>
<path d="M115.546 142.041L114.914 141.669L115.642 141.734L115.546 142.041Z" fill="#444359"/>
<path d="M115.699 142.132C116.035 141.207 116.963 140.78 117.877 141.094C118.023 141.142 118.087 140.909 117.941 140.861C116.899 140.505 115.848 141.026 115.47 142.071C115.416 142.213 115.645 142.278 115.699 142.132Z" fill="#444359"/>
<path d="M116.112 141.152L115.829 140.307L116.388 140.993L116.112 141.152Z" fill="#444359"/>
<path d="M117.417 140.89L117.611 140.307L117.735 140.912L117.417 140.89Z" fill="#444359"/>
<path d="M122.226 138.903L122.67 138.311L122.515 139.039L122.226 138.903Z" fill="#444359"/>
<path d="M122.566 138.987C121.559 138.586 120.482 139.036 120.053 140.045C119.993 140.188 120.2 140.311 120.26 140.168C120.651 139.25 121.584 138.855 122.505 139.22C122.645 139.279 122.705 139.042 122.566 138.987Z" fill="#444359"/>
<path d="M121.187 138.971L121.063 138.088L121.489 138.868L121.187 138.971Z" fill="#444359"/>
<path d="M120.225 139.932L119.866 139.434L120.422 139.68L120.225 139.932Z" fill="#444359"/>
<path d="M148.544 141.753L151.704 131.659C151.786 131.397 152.021 131.216 152.295 131.21L157.964 131.058C158.399 131.045 158.717 131.472 158.59 131.896L155.439 142.381C155.353 142.663 155.093 142.85 154.804 142.841L149.125 142.604C148.706 142.578 148.417 142.161 148.544 141.753Z" fill="#3F4553"/>
<path d="M148.01 141.753L151.17 131.659C151.252 131.397 151.488 131.216 151.761 131.21L157.43 131.058C157.865 131.045 158.183 131.472 158.056 131.896L154.905 142.381C154.819 142.663 154.559 142.85 154.27 142.841L148.591 142.604C148.168 142.578 147.883 142.161 148.01 141.753Z" fill="#4E5567"/>
<path d="M157.027 132.701L154.915 139.725L154.613 140.735L154.47 141.21C154.419 141.378 154.292 141.505 154.14 141.556C154.079 141.576 154.019 141.585 153.956 141.582L152.771 141.534L149.347 141.391C149.004 141.375 148.772 141.035 148.874 140.705L150.509 135.477L151.129 133.5L151.44 132.51C151.453 132.468 151.472 132.426 151.497 132.391C151.586 132.245 151.742 132.151 151.916 132.145L152.082 132.142L156.519 132.022C156.871 132.012 157.128 132.358 157.027 132.701Z" fill="#F2EDE4"/>
<g opacity="0.35">
<path opacity="0.35" d="M154.915 139.725L154.613 140.734L151.497 132.39C151.586 132.245 151.742 132.151 151.916 132.145L152.081 132.141L154.915 139.725Z" fill="white"/>
</g>
<g opacity="0.35">
<path opacity="0.35" d="M154.14 141.556C154.079 141.576 154.019 141.585 153.956 141.582L152.771 141.534L150.51 135.477L151.129 133.5L154.14 141.556Z" fill="white"/>
</g>
<path d="M112.526 143.588C113.628 141.039 113.92 138.133 113.352 135.406C113.749 136.703 115.137 137.438 116.461 137.609C117.785 137.781 119.129 137.541 120.463 137.609C121.797 137.677 123.239 138.156 123.912 139.33C124.036 139.544 124.173 139.809 124.414 139.829C124.716 139.854 124.894 139.492 124.957 139.191C125.449 136.936 124.541 134.461 122.81 132.967C121.079 131.472 118.627 130.951 116.413 131.459C114.2 131.967 112.249 133.449 110.998 135.374C110.214 136.58 109.683 137.975 109.604 139.421C109.524 140.864 109.918 142.355 110.804 143.484C111.023 143.763 111.293 144.031 111.636 144.109C111.979 144.187 112.399 143.989 112.453 143.633" fill="#3F4553"/>
<path d="M112.496 146.84C114.139 146.499 115.179 144.763 114.819 142.963C114.458 141.164 112.834 139.981 111.191 140.323C109.548 140.664 108.508 142.4 108.868 144.199C109.229 145.999 110.853 147.181 112.496 146.84Z" fill="#8E97FD"/>
<path d="M110.642 142.245C108.838 136.642 111.097 134.529 111.198 134.393L111.265 134.387H111.281L111.347 134.384C111.271 134.49 110.363 137.03 111.846 141.637L110.642 142.245Z" fill="#8E97FD"/>
<path d="M114.45 145.377C109.782 146.639 109.013 144.093 109.022 142.255C108.8 142.847 108.737 143.52 108.873 144.203C109.235 146.005 110.858 147.186 112.5 146.846C113.348 146.665 114.034 146.115 114.45 145.377Z" fill="#8E97FD"/>
</g>
<defs>
<clipPath id="clip0_159_3662">
<rect width="287" height="274" fill="white"/>
</clipPath>
</defs>
</svg>
